<mxfile host="app.diagrams.net" agent="Mozilla/5.0 (Windows NT 10.0; Win64; x64) AppleWebKit/537.36 (KHTML, like Gecko) Chrome/130.0.0.0 Safari/537.36" version="24.8.4">
  <diagram name="Page-1" id="K5yaOyUJU9RfkCoRuIgk">
    <mxGraphModel dx="2284" dy="818" grid="1" gridSize="10" guides="1" tooltips="1" connect="1" arrows="1" fold="1" page="1" pageScale="1" pageWidth="850" pageHeight="1100" math="0" shadow="0">
      <root>
        <mxCell id="0" />
        <mxCell id="1" parent="0" />
        <mxCell id="E0R6BfmWh4z85ws4LRd0-1" value="CT = Current time&lt;div&gt;LA= Last active&lt;/div&gt;&lt;div&gt;&lt;br&gt;&lt;/div&gt;" style="rounded=0;whiteSpace=wrap;html=1;" parent="1" vertex="1">
          <mxGeometry x="-600" y="170" width="120" height="190" as="geometry" />
        </mxCell>
        <mxCell id="E0R6BfmWh4z85ws4LRd0-2" value="Start" style="ellipse;whiteSpace=wrap;html=1;" parent="1" vertex="1">
          <mxGeometry x="340" y="120" width="120" height="80" as="geometry" />
        </mxCell>
        <mxCell id="E0R6BfmWh4z85ws4LRd0-3" value="" style="endArrow=classic;html=1;rounded=0;" parent="1" edge="1">
          <mxGeometry width="50" height="50" relative="1" as="geometry">
            <mxPoint x="400" y="200" as="sourcePoint" />
            <mxPoint x="399.95" y="240" as="targetPoint" />
            <Array as="points">
              <mxPoint x="399.95" y="230" />
              <mxPoint x="399.95" y="240" />
            </Array>
          </mxGeometry>
        </mxCell>
        <mxCell id="E0R6BfmWh4z85ws4LRd0-6" style="edgeStyle=orthogonalEdgeStyle;rounded=0;orthogonalLoop=1;jettySize=auto;html=1;exitX=1;exitY=0.5;exitDx=0;exitDy=0;" parent="1" source="E0R6BfmWh4z85ws4LRd0-4" edge="1">
          <mxGeometry relative="1" as="geometry">
            <mxPoint x="600" y="320" as="targetPoint" />
          </mxGeometry>
        </mxCell>
        <mxCell id="E0R6BfmWh4z85ws4LRd0-7" style="edgeStyle=orthogonalEdgeStyle;rounded=0;orthogonalLoop=1;jettySize=auto;html=1;exitX=0;exitY=0.5;exitDx=0;exitDy=0;" parent="1" source="E0R6BfmWh4z85ws4LRd0-4" edge="1">
          <mxGeometry relative="1" as="geometry">
            <mxPoint x="200" y="320" as="targetPoint" />
          </mxGeometry>
        </mxCell>
        <mxCell id="E0R6BfmWh4z85ws4LRd0-4" value="user.active" style="rounded=0;whiteSpace=wrap;html=1;" parent="1" vertex="1">
          <mxGeometry x="340" y="240" width="120" height="60" as="geometry" />
        </mxCell>
        <mxCell id="E0R6BfmWh4z85ws4LRd0-8" value="False" style="text;html=1;align=center;verticalAlign=middle;whiteSpace=wrap;rounded=0;" parent="1" vertex="1">
          <mxGeometry x="500" y="240" width="60" height="30" as="geometry" />
        </mxCell>
        <mxCell id="E0R6BfmWh4z85ws4LRd0-9" value="True" style="text;html=1;align=center;verticalAlign=middle;whiteSpace=wrap;rounded=0;" parent="1" vertex="1">
          <mxGeometry x="230" y="240" width="60" height="30" as="geometry" />
        </mxCell>
        <mxCell id="E0R6BfmWh4z85ws4LRd0-11" style="edgeStyle=orthogonalEdgeStyle;rounded=0;orthogonalLoop=1;jettySize=auto;html=1;" parent="1" source="E0R6BfmWh4z85ws4LRd0-10" edge="1">
          <mxGeometry relative="1" as="geometry">
            <mxPoint x="480" y="400" as="targetPoint" />
          </mxGeometry>
        </mxCell>
        <mxCell id="E0R6BfmWh4z85ws4LRd0-12" style="edgeStyle=orthogonalEdgeStyle;rounded=0;orthogonalLoop=1;jettySize=auto;html=1;exitX=1;exitY=0.5;exitDx=0;exitDy=0;" parent="1" source="E0R6BfmWh4z85ws4LRd0-10" edge="1">
          <mxGeometry relative="1" as="geometry">
            <mxPoint x="720" y="400" as="targetPoint" />
          </mxGeometry>
        </mxCell>
        <mxCell id="E0R6BfmWh4z85ws4LRd0-10" value="user.lastAffairs" style="rounded=0;whiteSpace=wrap;html=1;" parent="1" vertex="1">
          <mxGeometry x="540" y="320" width="120" height="60" as="geometry" />
        </mxCell>
        <mxCell id="E0R6BfmWh4z85ws4LRd0-13" value="Stop" style="rounded=0;whiteSpace=wrap;html=1;" parent="1" vertex="1">
          <mxGeometry x="420" y="400" width="120" height="60" as="geometry" />
        </mxCell>
        <mxCell id="E0R6BfmWh4z85ws4LRd0-14" value="Cremate" style="rounded=0;whiteSpace=wrap;html=1;" parent="1" vertex="1">
          <mxGeometry x="660" y="400" width="120" height="60" as="geometry" />
        </mxCell>
        <mxCell id="E0R6BfmWh4z85ws4LRd0-15" value="True" style="text;html=1;align=center;verticalAlign=middle;whiteSpace=wrap;rounded=0;" parent="1" vertex="1">
          <mxGeometry x="480" y="320" width="60" height="30" as="geometry" />
        </mxCell>
        <mxCell id="E0R6BfmWh4z85ws4LRd0-16" value="False" style="text;html=1;align=center;verticalAlign=middle;whiteSpace=wrap;rounded=0;" parent="1" vertex="1">
          <mxGeometry x="660" y="320" width="60" height="30" as="geometry" />
        </mxCell>
        <mxCell id="E0R6BfmWh4z85ws4LRd0-18" style="edgeStyle=orthogonalEdgeStyle;rounded=0;orthogonalLoop=1;jettySize=auto;html=1;exitX=1;exitY=0.5;exitDx=0;exitDy=0;" parent="1" source="E0R6BfmWh4z85ws4LRd0-17" edge="1">
          <mxGeometry relative="1" as="geometry">
            <mxPoint x="320" y="399.9999999999998" as="targetPoint" />
          </mxGeometry>
        </mxCell>
        <mxCell id="E0R6BfmWh4z85ws4LRd0-19" style="edgeStyle=orthogonalEdgeStyle;rounded=0;orthogonalLoop=1;jettySize=auto;html=1;exitX=0;exitY=0.5;exitDx=0;exitDy=0;" parent="1" source="E0R6BfmWh4z85ws4LRd0-17" edge="1">
          <mxGeometry relative="1" as="geometry">
            <mxPoint x="80" y="399.9999999999998" as="targetPoint" />
          </mxGeometry>
        </mxCell>
        <mxCell id="E0R6BfmWh4z85ws4LRd0-17" value="LA+Timer &amp;gt;= CT" style="rounded=0;whiteSpace=wrap;html=1;" parent="1" vertex="1">
          <mxGeometry x="140" y="320" width="120" height="60" as="geometry" />
        </mxCell>
        <mxCell id="E0R6BfmWh4z85ws4LRd0-20" value="Wait" style="rounded=0;whiteSpace=wrap;html=1;" parent="1" vertex="1">
          <mxGeometry x="260" y="400" width="120" height="60" as="geometry" />
        </mxCell>
        <mxCell id="E0R6BfmWh4z85ws4LRd0-23" style="edgeStyle=orthogonalEdgeStyle;rounded=0;orthogonalLoop=1;jettySize=auto;html=1;exitX=0;exitY=0.5;exitDx=0;exitDy=0;" parent="1" source="E0R6BfmWh4z85ws4LRd0-21" edge="1">
          <mxGeometry relative="1" as="geometry">
            <mxPoint x="-80" y="480" as="targetPoint" />
            <mxPoint x="-10" y="430" as="sourcePoint" />
            <Array as="points">
              <mxPoint x="-10" y="430" />
              <mxPoint x="-10" y="431" />
              <mxPoint x="-80" y="431" />
            </Array>
          </mxGeometry>
        </mxCell>
        <mxCell id="E0R6BfmWh4z85ws4LRd0-24" style="edgeStyle=orthogonalEdgeStyle;rounded=0;orthogonalLoop=1;jettySize=auto;html=1;exitX=1;exitY=0.5;exitDx=0;exitDy=0;" parent="1" source="E0R6BfmWh4z85ws4LRd0-21" edge="1">
          <mxGeometry relative="1" as="geometry">
            <mxPoint x="200" y="480" as="targetPoint" />
          </mxGeometry>
        </mxCell>
        <mxCell id="E0R6BfmWh4z85ws4LRd0-21" value="user.check1" style="rounded=0;whiteSpace=wrap;html=1;" parent="1" vertex="1">
          <mxGeometry x="20" y="400" width="120" height="60" as="geometry" />
        </mxCell>
        <mxCell id="E0R6BfmWh4z85ws4LRd0-25" value="False" style="text;html=1;align=center;verticalAlign=middle;whiteSpace=wrap;rounded=0;" parent="1" vertex="1">
          <mxGeometry x="260" y="320" width="60" height="30" as="geometry" />
        </mxCell>
        <mxCell id="E0R6BfmWh4z85ws4LRd0-26" value="True" style="text;html=1;align=center;verticalAlign=middle;whiteSpace=wrap;rounded=0;" parent="1" vertex="1">
          <mxGeometry x="80" y="320" width="60" height="30" as="geometry" />
        </mxCell>
        <mxCell id="E0R6BfmWh4z85ws4LRd0-27" value="True" style="text;html=1;align=center;verticalAlign=middle;resizable=0;points=[];autosize=1;strokeColor=none;fillColor=none;" parent="1" vertex="1">
          <mxGeometry x="-50" y="400" width="50" height="30" as="geometry" />
        </mxCell>
        <mxCell id="E0R6BfmWh4z85ws4LRd0-28" value="False" style="text;html=1;align=center;verticalAlign=middle;resizable=0;points=[];autosize=1;strokeColor=none;fillColor=none;" parent="1" vertex="1">
          <mxGeometry x="145" y="400" width="50" height="30" as="geometry" />
        </mxCell>
        <mxCell id="E0R6BfmWh4z85ws4LRd0-29" value="Send N1&lt;div&gt;user.check1=True&lt;/div&gt;&lt;div&gt;user.lastNot = CT&lt;/div&gt;" style="whiteSpace=wrap;html=1;" parent="1" vertex="1">
          <mxGeometry x="140" y="480" width="120" height="60" as="geometry" />
        </mxCell>
        <mxCell id="E0R6BfmWh4z85ws4LRd0-31" style="edgeStyle=orthogonalEdgeStyle;rounded=0;orthogonalLoop=1;jettySize=auto;html=1;exitX=1;exitY=0.5;exitDx=0;exitDy=0;" parent="1" source="E0R6BfmWh4z85ws4LRd0-30" edge="1">
          <mxGeometry relative="1" as="geometry">
            <mxPoint x="80" y="560.0000000000002" as="targetPoint" />
          </mxGeometry>
        </mxCell>
        <mxCell id="E0R6BfmWh4z85ws4LRd0-33" style="edgeStyle=orthogonalEdgeStyle;rounded=0;orthogonalLoop=1;jettySize=auto;html=1;exitX=0;exitY=0.5;exitDx=0;exitDy=0;entryX=0.5;entryY=0;entryDx=0;entryDy=0;" parent="1" source="E0R6BfmWh4z85ws4LRd0-30" target="E0R6BfmWh4z85ws4LRd0-34" edge="1">
          <mxGeometry relative="1" as="geometry">
            <mxPoint x="-260" y="600" as="targetPoint" />
            <Array as="points">
              <mxPoint x="-260" y="510" />
            </Array>
          </mxGeometry>
        </mxCell>
        <mxCell id="E0R6BfmWh4z85ws4LRd0-30" value="user.check2" style="whiteSpace=wrap;html=1;" parent="1" vertex="1">
          <mxGeometry x="-130" y="480" width="120" height="60" as="geometry" />
        </mxCell>
        <mxCell id="E0R6BfmWh4z85ws4LRd0-37" style="edgeStyle=orthogonalEdgeStyle;rounded=0;orthogonalLoop=1;jettySize=auto;html=1;" parent="1" edge="1">
          <mxGeometry relative="1" as="geometry">
            <mxPoint x="-30" y="639.99" as="targetPoint" />
            <mxPoint x="20" y="590.0023456790125" as="sourcePoint" />
          </mxGeometry>
        </mxCell>
        <mxCell id="E0R6BfmWh4z85ws4LRd0-38" style="edgeStyle=orthogonalEdgeStyle;rounded=0;orthogonalLoop=1;jettySize=auto;html=1;exitX=1;exitY=0.5;exitDx=0;exitDy=0;" parent="1" source="E0R6BfmWh4z85ws4LRd0-32" edge="1">
          <mxGeometry relative="1" as="geometry">
            <mxPoint x="200" y="640" as="targetPoint" />
          </mxGeometry>
        </mxCell>
        <mxCell id="E0R6BfmWh4z85ws4LRd0-32" value="CT-user.lastNot&amp;gt;=1week" style="whiteSpace=wrap;html=1;" parent="1" vertex="1">
          <mxGeometry x="10" y="560" width="140" height="60" as="geometry" />
        </mxCell>
        <mxCell id="E0R6BfmWh4z85ws4LRd0-48" style="edgeStyle=orthogonalEdgeStyle;rounded=0;orthogonalLoop=1;jettySize=auto;html=1;exitX=1;exitY=0.5;exitDx=0;exitDy=0;entryX=0.5;entryY=0;entryDx=0;entryDy=0;" parent="1" source="E0R6BfmWh4z85ws4LRd0-34" target="E0R6BfmWh4z85ws4LRd0-49" edge="1">
          <mxGeometry relative="1" as="geometry">
            <mxPoint x="-160" y="640" as="targetPoint" />
          </mxGeometry>
        </mxCell>
        <mxCell id="E0R6BfmWh4z85ws4LRd0-51" style="edgeStyle=orthogonalEdgeStyle;rounded=0;orthogonalLoop=1;jettySize=auto;html=1;exitX=0;exitY=0.5;exitDx=0;exitDy=0;entryX=0.5;entryY=0;entryDx=0;entryDy=0;" parent="1" source="E0R6BfmWh4z85ws4LRd0-34" target="E0R6BfmWh4z85ws4LRd0-53" edge="1">
          <mxGeometry relative="1" as="geometry">
            <mxPoint x="-400" y="630" as="targetPoint" />
          </mxGeometry>
        </mxCell>
        <mxCell id="E0R6BfmWh4z85ws4LRd0-34" value="user.contact == Null" style="whiteSpace=wrap;html=1;" parent="1" vertex="1">
          <mxGeometry x="-320" y="560" width="120" height="60" as="geometry" />
        </mxCell>
        <mxCell id="E0R6BfmWh4z85ws4LRd0-35" value="False" style="text;html=1;align=center;verticalAlign=middle;resizable=0;points=[];autosize=1;strokeColor=none;fillColor=none;" parent="1" vertex="1">
          <mxGeometry x="25" y="488" width="50" height="30" as="geometry" />
        </mxCell>
        <mxCell id="E0R6BfmWh4z85ws4LRd0-36" value="True" style="text;html=1;align=center;verticalAlign=middle;resizable=0;points=[];autosize=1;strokeColor=none;fillColor=none;" parent="1" vertex="1">
          <mxGeometry x="-210" y="488" width="50" height="30" as="geometry" />
        </mxCell>
        <mxCell id="E0R6BfmWh4z85ws4LRd0-39" value="False" style="text;html=1;align=center;verticalAlign=middle;resizable=0;points=[];autosize=1;strokeColor=none;fillColor=none;" parent="1" vertex="1">
          <mxGeometry x="150" y="560" width="50" height="30" as="geometry" />
        </mxCell>
        <mxCell id="E0R6BfmWh4z85ws4LRd0-40" value="True" style="text;html=1;align=center;verticalAlign=middle;resizable=0;points=[];autosize=1;strokeColor=none;fillColor=none;" parent="1" vertex="1">
          <mxGeometry x="-40" y="560" width="50" height="30" as="geometry" />
        </mxCell>
        <mxCell id="E0R6BfmWh4z85ws4LRd0-42" value="Send N2&lt;div&gt;user.check2=True&lt;/div&gt;&lt;div&gt;user.lastNot=CT&lt;/div&gt;" style="whiteSpace=wrap;html=1;" parent="1" vertex="1">
          <mxGeometry x="-85" y="640" width="120" height="60" as="geometry" />
        </mxCell>
        <mxCell id="E0R6BfmWh4z85ws4LRd0-43" value="Wait" style="whiteSpace=wrap;html=1;" parent="1" vertex="1">
          <mxGeometry x="140" y="640" width="120" height="60" as="geometry" />
        </mxCell>
        <mxCell id="E0R6BfmWh4z85ws4LRd0-56" style="edgeStyle=orthogonalEdgeStyle;rounded=0;orthogonalLoop=1;jettySize=auto;html=1;exitX=1;exitY=0.5;exitDx=0;exitDy=0;" parent="1" source="E0R6BfmWh4z85ws4LRd0-49" edge="1">
          <mxGeometry relative="1" as="geometry">
            <mxPoint y="800" as="targetPoint" />
          </mxGeometry>
        </mxCell>
        <mxCell id="E0R6BfmWh4z85ws4LRd0-57" style="edgeStyle=orthogonalEdgeStyle;rounded=0;orthogonalLoop=1;jettySize=auto;html=1;exitX=0;exitY=0.5;exitDx=0;exitDy=0;" parent="1" source="E0R6BfmWh4z85ws4LRd0-49" edge="1">
          <mxGeometry relative="1" as="geometry">
            <mxPoint x="-320" y="800" as="targetPoint" />
          </mxGeometry>
        </mxCell>
        <mxCell id="E0R6BfmWh4z85ws4LRd0-49" value="&lt;font style=&quot;font-size: 8px;&quot;&gt;user.followUp.followUpLast&lt;/font&gt;&lt;div style=&quot;line-height: 20%; font-size: 8px;&quot;&gt;&lt;br&gt;&lt;/div&gt;" style="whiteSpace=wrap;html=1;" parent="1" vertex="1">
          <mxGeometry x="-220" y="700" width="120" height="60" as="geometry" />
        </mxCell>
        <mxCell id="E0R6BfmWh4z85ws4LRd0-50" value="False" style="text;html=1;align=center;verticalAlign=middle;resizable=0;points=[];autosize=1;strokeColor=none;fillColor=none;" parent="1" vertex="1">
          <mxGeometry x="-200" y="560" width="50" height="30" as="geometry" />
        </mxCell>
        <mxCell id="E0R6BfmWh4z85ws4LRd0-52" value="True" style="text;html=1;align=center;verticalAlign=middle;resizable=0;points=[];autosize=1;strokeColor=none;fillColor=none;" parent="1" vertex="1">
          <mxGeometry x="-390" y="560" width="50" height="30" as="geometry" />
        </mxCell>
        <mxCell id="E0R6BfmWh4z85ws4LRd0-53" value="Greet loose ends" style="whiteSpace=wrap;html=1;" parent="1" vertex="1">
          <mxGeometry x="-460" y="640" width="120" height="60" as="geometry" />
        </mxCell>
        <mxCell id="E0R6BfmWh4z85ws4LRd0-58" value="Send FollowUpNot&lt;div&gt;user.lastNot = CT&lt;/div&gt;&lt;div&gt;user.FollowUp = true&lt;/div&gt;" style="whiteSpace=wrap;html=1;" parent="1" vertex="1">
          <mxGeometry x="-60" y="800" width="120" height="60" as="geometry" />
        </mxCell>
        <mxCell id="E0R6BfmWh4z85ws4LRd0-59" value="False" style="text;html=1;align=center;verticalAlign=middle;resizable=0;points=[];autosize=1;strokeColor=none;fillColor=none;" parent="1" vertex="1">
          <mxGeometry x="-85" y="708" width="50" height="30" as="geometry" />
        </mxCell>
        <mxCell id="E0R6BfmWh4z85ws4LRd0-60" value="True" style="text;html=1;align=center;verticalAlign=middle;resizable=0;points=[];autosize=1;strokeColor=none;fillColor=none;" parent="1" vertex="1">
          <mxGeometry x="-300" y="708" width="50" height="30" as="geometry" />
        </mxCell>
        <mxCell id="E0R6BfmWh4z85ws4LRd0-63" style="edgeStyle=orthogonalEdgeStyle;rounded=0;orthogonalLoop=1;jettySize=auto;html=1;exitX=1;exitY=0.5;exitDx=0;exitDy=0;" parent="1" source="E0R6BfmWh4z85ws4LRd0-62" edge="1">
          <mxGeometry relative="1" as="geometry">
            <mxPoint x="-160" y="880" as="targetPoint" />
          </mxGeometry>
        </mxCell>
        <mxCell id="E0R6BfmWh4z85ws4LRd0-64" style="edgeStyle=orthogonalEdgeStyle;rounded=0;orthogonalLoop=1;jettySize=auto;html=1;exitX=0;exitY=0.5;exitDx=0;exitDy=0;" parent="1" source="E0R6BfmWh4z85ws4LRd0-62" edge="1">
          <mxGeometry relative="1" as="geometry">
            <mxPoint x="-480" y="880" as="targetPoint" />
          </mxGeometry>
        </mxCell>
        <mxCell id="E0R6BfmWh4z85ws4LRd0-62" value="CT-user.lastNot &amp;gt;= 1w&lt;div&gt;&lt;br&gt;&lt;/div&gt;" style="whiteSpace=wrap;html=1;" parent="1" vertex="1">
          <mxGeometry x="-390" y="800" width="140" height="60" as="geometry" />
        </mxCell>
        <mxCell id="E0R6BfmWh4z85ws4LRd0-69" style="edgeStyle=orthogonalEdgeStyle;rounded=0;orthogonalLoop=1;jettySize=auto;html=1;exitX=0;exitY=0.5;exitDx=0;exitDy=0;" parent="1" source="E0R6BfmWh4z85ws4LRd0-65" edge="1">
          <mxGeometry relative="1" as="geometry">
            <mxPoint x="-600" y="960" as="targetPoint" />
          </mxGeometry>
        </mxCell>
        <mxCell id="E0R6BfmWh4z85ws4LRd0-70" style="edgeStyle=orthogonalEdgeStyle;rounded=0;orthogonalLoop=1;jettySize=auto;html=1;exitX=1;exitY=0.5;exitDx=0;exitDy=0;" parent="1" source="E0R6BfmWh4z85ws4LRd0-65" edge="1">
          <mxGeometry relative="1" as="geometry">
            <mxPoint x="-360" y="960" as="targetPoint" />
          </mxGeometry>
        </mxCell>
        <mxCell id="E0R6BfmWh4z85ws4LRd0-65" value="user.followResponse" style="whiteSpace=wrap;html=1;" parent="1" vertex="1">
          <mxGeometry x="-540" y="880" width="120" height="60" as="geometry" />
        </mxCell>
        <mxCell id="E0R6BfmWh4z85ws4LRd0-66" value="Wait" style="whiteSpace=wrap;html=1;" parent="1" vertex="1">
          <mxGeometry x="-220" y="880" width="120" height="60" as="geometry" />
        </mxCell>
        <mxCell id="E0R6BfmWh4z85ws4LRd0-67" value="False" style="text;html=1;align=center;verticalAlign=middle;resizable=0;points=[];autosize=1;strokeColor=none;fillColor=none;" parent="1" vertex="1">
          <mxGeometry x="-230" y="800" width="50" height="30" as="geometry" />
        </mxCell>
        <mxCell id="E0R6BfmWh4z85ws4LRd0-68" value="True" style="text;html=1;align=center;verticalAlign=middle;resizable=0;points=[];autosize=1;strokeColor=none;fillColor=none;" parent="1" vertex="1">
          <mxGeometry x="-455" y="798" width="50" height="30" as="geometry" />
        </mxCell>
        <mxCell id="E0R6BfmWh4z85ws4LRd0-71" value="user.lastActive=CT" style="whiteSpace=wrap;html=1;" parent="1" vertex="1">
          <mxGeometry x="-660" y="960" width="120" height="60" as="geometry" />
        </mxCell>
        <mxCell id="E0R6BfmWh4z85ws4LRd0-72" value="Cremate" style="whiteSpace=wrap;html=1;" parent="1" vertex="1">
          <mxGeometry x="-420" y="960" width="120" height="60" as="geometry" />
        </mxCell>
        <mxCell id="E0R6BfmWh4z85ws4LRd0-75" value="True" style="text;html=1;align=center;verticalAlign=middle;resizable=0;points=[];autosize=1;strokeColor=none;fillColor=none;" parent="1" vertex="1">
          <mxGeometry x="-600" y="888" width="50" height="30" as="geometry" />
        </mxCell>
        <mxCell id="E0R6BfmWh4z85ws4LRd0-76" value="False" style="text;html=1;align=center;verticalAlign=middle;resizable=0;points=[];autosize=1;strokeColor=none;fillColor=none;" parent="1" vertex="1">
          <mxGeometry x="-415" y="888" width="50" height="30" as="geometry" />
        </mxCell>
        <mxCell id="VQ2aTPq5qKIOa1CLoEHN-2" style="edgeStyle=orthogonalEdgeStyle;rounded=0;orthogonalLoop=1;jettySize=auto;html=1;" edge="1" parent="1" source="VQ2aTPq5qKIOa1CLoEHN-1">
          <mxGeometry relative="1" as="geometry">
            <mxPoint x="670" y="860" as="targetPoint" />
          </mxGeometry>
        </mxCell>
        <mxCell id="VQ2aTPq5qKIOa1CLoEHN-1" value="Login,&lt;div&gt;Register,&lt;/div&gt;&lt;div&gt;&lt;br&gt;&lt;/div&gt;" style="whiteSpace=wrap;html=1;" vertex="1" parent="1">
          <mxGeometry x="490" y="750" width="100" height="220" as="geometry" />
        </mxCell>
        <mxCell id="VQ2aTPq5qKIOa1CLoEHN-6" style="edgeStyle=orthogonalEdgeStyle;rounded=0;orthogonalLoop=1;jettySize=auto;html=1;" edge="1" parent="1" source="VQ2aTPq5qKIOa1CLoEHN-3">
          <mxGeometry relative="1" as="geometry">
            <mxPoint x="890" y="860" as="targetPoint" />
          </mxGeometry>
        </mxCell>
        <mxCell id="VQ2aTPq5qKIOa1CLoEHN-3" value="PersonalDetails&lt;br&gt;(Dob,&lt;div&gt;gender,&lt;/div&gt;&lt;div&gt;phone code,&lt;/div&gt;&lt;div&gt;phone no,)&lt;/div&gt;" style="whiteSpace=wrap;html=1;" vertex="1" parent="1">
          <mxGeometry x="680" y="750" width="110" height="220" as="geometry" />
        </mxCell>
        <mxCell id="VQ2aTPq5qKIOa1CLoEHN-4" value="Set User info&lt;div style=&quot;font-size: 1px;&quot;&gt;in localStorage&lt;br style=&quot;font-size: 1px;&quot;&gt;along with token&lt;/div&gt;" style="text;html=1;align=center;verticalAlign=middle;resizable=0;points=[];autosize=1;strokeColor=none;fillColor=none;fontSize=1;" vertex="1" parent="1">
          <mxGeometry x="590" y="810" width="90" height="50" as="geometry" />
        </mxCell>
        <mxCell id="VQ2aTPq5qKIOa1CLoEHN-5" value="If dob/gender==NULL" style="text;html=1;align=center;verticalAlign=middle;resizable=0;points=[];autosize=1;strokeColor=none;fillColor=none;" vertex="1" parent="1">
          <mxGeometry x="665" y="720" width="140" height="30" as="geometry" />
        </mxCell>
        <mxCell id="VQ2aTPq5qKIOa1CLoEHN-7" value="add these details&lt;div&gt;to local storage&amp;nbsp;&lt;/div&gt;&lt;div&gt;as well&lt;/div&gt;&lt;div&gt;&lt;br&gt;&lt;/div&gt;" style="text;html=1;align=center;verticalAlign=middle;resizable=0;points=[];autosize=1;strokeColor=none;fillColor=none;" vertex="1" parent="1">
          <mxGeometry x="790" y="810" width="110" height="70" as="geometry" />
        </mxCell>
        <mxCell id="VQ2aTPq5qKIOa1CLoEHN-8" value="" style="whiteSpace=wrap;html=1;" vertex="1" parent="1">
          <mxGeometry x="890" y="750" width="110" height="220" as="geometry" />
        </mxCell>
      </root>
    </mxGraphModel>
  </diagram>
</mxfile>
